<svg xmlns="http://www.w3.org/2000/svg" viewBox="0 0 512 512" role="img" aria-label="Peça de alcatra">
  <rect width="512" height="512" rx="96" fill="#FBE4DD"/>
  <circle cx="256" cy="246" r="180" fill="#FFF2EE"/>
  <ellipse cx="256" cy="402" rx="176" ry="26" fill="#EFCFC4"/>
  <ellipse cx="256" cy="360" rx="190" ry="44" fill="#FFFFFF"/>
  <ellipse cx="256" cy="352" rx="168" ry="34" fill="#F4F1EE"/>
  <path d="M112 268 C 110 196, 196 150, 272 160 C 360 170, 414 214, 404 276 C 396 326, 330 350, 250 346 C 170 342, 114 318, 112 268 Z" fill="#E7A38E"/>
  <path d="M128 262 C 128 204, 200 170, 270 178 C 348 186, 392 222, 386 270 C 380 312, 322 332, 252 330 C 182 328, 128 306, 128 262 Z" fill="#C4523D"/>
  <path d="M170 240 C 206 222, 250 226, 288 244 C 318 258, 344 256, 364 244" stroke="#E7A38E" stroke-width="10" fill="none" stroke-linecap="round"/>
  <path d="M176 290 C 214 280, 246 288, 280 300" stroke="#E7A38E" stroke-width="8" fill="none" stroke-linecap="round" opacity="0.85"/>
  <ellipse cx="222" cy="214" rx="34" ry="12" fill="#D8705A" opacity="0.7"/>
  <rect x="330" y="96" width="96" height="42" rx="21" fill="#9C3B2B"/>
  <text x="378" y="125" text-anchor="middle" font-family="Arial, Helvetica, sans-serif" font-size="22" font-weight="700" fill="#FFFFFF">kg</text>
</svg>
